<svg width="317" height="317" viewBox="0 0 317 317" fill="none" xmlns="http://www.w3.org/2000/svg">
<path d="M157.898 308.156C240.396 308.156 307.274 269.544 307.274 221.913C307.274 174.282 240.396 135.67 157.898 135.67C75.3992 135.67 8.521 174.282 8.521 221.913C8.521 269.544 75.3992 308.156 157.898 308.156Z" fill="#F0F0F0"/>
<path d="M243.684 251.837C233.889 246.182 233.889 237.014 243.684 231.359C253.479 225.704 269.361 225.704 279.156 231.359C288.952 237.014 288.952 246.182 279.156 251.837C269.361 257.493 253.479 257.493 243.684 251.837Z" fill="#E0E0E0"/>
<path d="M44.456 252.623L18.6902 237.75C17.2384 236.913 17.2384 235.55 18.6902 234.713L168.561 148.184C169.376 147.772 170.276 147.557 171.189 147.557C172.103 147.557 173.003 147.772 173.817 148.184L199.589 163.058C201.041 163.895 201.041 165.258 199.589 166.095L49.7182 252.623C48.9025 253.036 48.0012 253.251 47.0871 253.251C46.1729 253.251 45.2716 253.036 44.456 252.623Z" fill="#E0E0E0"/>
<path d="M137.071 226.109L159.223 213.303C161.505 211.984 162.646 210.259 162.646 208.529C162.646 206.798 162.646 205.447 162.646 205.447L139.67 192.488C139.028 192.073 138.494 191.512 138.11 190.851C137.727 190.19 137.505 189.447 137.464 188.684V161.365L98.7898 183.72V211.026C98.8344 211.789 99.0572 212.53 99.4404 213.191C99.8236 213.852 100.356 214.413 100.996 214.83L120.549 226.09C125.101 228.747 132.506 228.747 137.071 226.109Z" fill="#002F52"/>
<g opacity="0.6">
<path opacity="0.6" d="M137.071 226.109L159.223 213.303C161.505 211.984 162.646 210.259 162.646 208.529C162.646 206.798 162.646 205.447 162.646 205.447L139.67 192.488C139.028 192.073 138.494 191.512 138.11 190.851C137.727 190.19 137.505 189.447 137.464 188.684V161.365L98.7898 183.72V211.026C98.8344 211.789 99.0572 212.53 99.4404 213.191C99.8236 213.852 100.356 214.413 100.996 214.83L120.549 226.09C125.101 228.747 132.506 228.747 137.071 226.109Z" fill="black"/>
</g>
<path opacity="0.3" d="M108.065 215.864V218.932L100.977 214.843C100.338 214.426 99.8051 213.865 99.4229 213.204C99.0407 212.543 98.8195 211.801 98.7771 211.039V183.72L106.144 179.466C106.296 181.336 106.461 183.27 106.62 185.172L101.44 188.152V209.486C101.481 210.249 101.702 210.992 102.086 211.653C102.469 212.314 103.004 212.875 103.646 213.29L108.065 215.864Z" fill="black"/>
<path d="M101.44 209.492C101.484 210.255 101.706 210.997 102.089 211.657C102.472 212.318 103.006 212.88 103.646 213.296L120.523 223.022C125.088 225.653 132.493 225.659 137.064 223.022L159.254 210.215C163.826 207.577 163.826 203.304 159.254 200.667L142.365 190.941C141.726 190.524 141.194 189.962 140.812 189.301C140.43 188.641 140.208 187.899 140.165 187.137V165.797L101.491 188.152L101.44 209.492Z" fill="#002F52"/>
<path opacity="0.3" d="M101.44 209.492C101.484 210.255 101.706 210.997 102.089 211.657C102.472 212.318 103.006 212.88 103.646 213.296L120.523 223.022C125.088 225.653 132.493 225.659 137.064 223.022L159.254 210.215C163.826 207.577 163.826 203.304 159.254 200.667L142.365 190.941C141.726 190.524 141.194 189.962 140.812 189.301C140.43 188.641 140.208 187.899 140.165 187.137V165.797L101.491 188.152L101.44 209.492Z" fill="black"/>
<path opacity="0.5" d="M146.834 193.547L142.339 190.954C141.7 190.536 141.169 189.975 140.786 189.314C140.404 188.653 140.183 187.912 140.139 187.15V165.797L101.465 188.152V209.492C101.509 210.255 101.731 210.997 102.115 211.657C102.498 212.318 103.031 212.88 103.672 213.296L108.11 215.832L146.834 193.547Z" fill="black"/>
<path d="M162.653 205.454V208.535C162.653 210.266 161.505 211.984 159.229 213.309L137.039 226.11C134.611 227.406 131.898 228.079 129.146 228.069V225C131.898 225.011 134.611 224.337 137.039 223.041L159.229 210.228C161.505 208.916 162.653 207.185 162.653 205.454Z" fill="#002F52"/>
<path opacity="0.5" d="M162.653 205.454V208.535C162.653 210.266 161.505 211.984 159.229 213.309L137.039 226.11C134.611 227.406 131.898 228.079 129.146 228.069V225C131.898 225.011 134.611 224.337 137.039 223.041L159.229 210.228C161.505 208.916 162.653 207.185 162.653 205.454Z" fill="black"/>
<path d="M39.308 236.013C40.144 236.417 41.0633 236.618 41.9916 236.602C42.9199 236.585 43.8314 236.351 44.6526 235.918L194.277 149.535C195.079 149.012 195.747 148.307 196.226 147.478C196.705 146.648 196.982 145.718 197.034 144.761V23.7178C197.006 22.7873 196.758 21.8768 196.31 21.0604C195.863 20.244 195.229 19.5448 194.46 19.0199C193.625 18.6156 192.707 18.4141 191.779 18.4317C190.852 18.4494 189.941 18.6856 189.122 19.1213L39.4982 105.529C38.6987 106.056 38.035 106.764 37.5612 107.596C37.0874 108.428 36.817 109.36 36.772 110.316V231.34C36.8003 232.263 37.0444 233.166 37.4848 233.978C37.9252 234.789 38.5496 235.486 39.308 236.013Z" fill="#002F52"/>
<path d="M44.6717 235.911L194.296 149.529C195.099 149.006 195.768 148.302 196.247 147.472C196.726 146.642 197.003 145.711 197.054 144.755V23.7176C197.054 21.9614 195.817 21.245 194.296 22.1262L44.6717 108.509C43.8691 109.032 43.2011 109.736 42.7219 110.566C42.2427 111.395 41.9658 112.326 41.9138 113.283V234.32C41.9138 236.076 43.1501 236.792 44.6717 235.911Z" fill="#002F52"/>
<path opacity="0.5" d="M44.6717 235.911L194.296 149.529C195.099 149.006 195.768 148.302 196.247 147.472C196.726 146.642 197.003 145.711 197.054 144.755V23.7176C197.054 21.9614 195.817 21.245 194.296 22.1262L44.6717 108.509C43.8691 109.032 43.2011 109.736 42.7219 110.566C42.2427 111.395 41.9658 112.326 41.9138 113.283V234.32C41.9138 236.076 43.1501 236.792 44.6717 235.911Z" fill="black"/>
<path d="M44.2659 239.056C43.4812 239.399 42.6317 239.567 41.7758 239.549C40.9199 239.532 40.0779 239.329 39.308 238.955C38.5479 238.427 37.9225 237.728 37.482 236.914C37.0415 236.1 36.7983 235.194 36.772 234.269V223.25L41.9391 226.243V237.262C41.9074 238.866 42.9281 239.595 44.2659 239.056Z" fill="#002F52"/>
<path opacity="0.5" d="M44.2659 239.056C43.4812 239.399 42.6317 239.567 41.7758 239.549C40.9199 239.532 40.0779 239.329 39.308 238.955C38.5479 238.427 37.9225 237.728 37.482 236.914C37.0415 236.1 36.7983 235.194 36.772 234.269V223.25L41.9391 226.243V237.262C41.9074 238.866 42.9281 239.595 44.2659 239.056Z" fill="black"/>
<path d="M41.9075 226.243V237.262C41.9075 239.018 43.1755 239.728 44.6654 238.853L194.289 152.471C195.088 151.95 195.754 151.249 196.233 150.424C196.712 149.6 196.991 148.674 197.047 147.722V136.652L41.9075 226.243Z" fill="#002F52"/>
<path opacity="0.3" d="M41.9138 226.218V237.262C41.9138 239.018 43.1818 239.728 44.6717 238.853L194.296 152.471C195.093 151.949 195.758 151.248 196.236 150.423C196.714 149.599 196.992 148.673 197.047 147.722V136.652L41.9138 226.218Z" fill="black"/>
<path d="M47.0808 212.39V115.001C47.1103 114.427 47.275 113.869 47.5615 113.371C47.848 112.873 48.2481 112.449 48.7292 112.135L190.2 30.4318C191.113 29.9056 191.855 30.3304 191.855 31.3828V128.822C191.824 129.396 191.658 129.955 191.371 130.453C191.083 130.951 190.682 131.374 190.2 131.688L48.7356 213.372C47.8226 213.899 47.0808 213.468 47.0808 212.39Z" fill="#002F52"/>
<path d="M47.0808 212.39V115.001C47.1103 114.427 47.275 113.869 47.5615 113.371C47.848 112.873 48.2481 112.449 48.7292 112.135L190.2 30.4318C191.113 29.9056 191.855 30.3304 191.855 31.3828V128.822C191.824 129.396 191.658 129.955 191.371 130.453C191.083 130.951 190.682 131.374 190.2 131.688L48.7356 213.372C47.8226 213.899 47.0808 213.468 47.0808 212.39Z" fill="#263238"/>
<path d="M119.477 184.957C118.724 185.447 118.097 186.108 117.648 186.885C117.198 187.663 116.939 188.536 116.891 189.433C116.891 191.081 118.051 191.754 119.477 190.929C120.231 190.439 120.859 189.777 121.308 188.998C121.758 188.219 122.017 187.345 122.064 186.447C122.064 184.799 120.904 184.133 119.477 184.957Z" fill="#002F52"/>
<path opacity="0.7" d="M42.7252 110.557C42.2339 111.383 41.953 112.317 41.9074 113.277V226.243L36.772 223.25V110.316C36.8052 109.353 37.0846 108.414 37.5835 107.59L42.7252 110.557Z" fill="black"/>
<path opacity="0.3" d="M197.022 23.2614C196.825 21.8413 195.678 21.3594 194.289 22.1266L44.6652 108.509C43.854 109.016 43.1844 109.721 42.7188 110.557L37.5454 107.571C38.0141 106.735 38.6856 106.031 39.4981 105.523L189.122 19.1468C189.942 18.711 190.854 18.4747 191.782 18.4571C192.711 18.4395 193.631 18.641 194.467 19.0453C195.17 19.5242 195.761 20.1485 196.202 20.8758C196.643 21.6032 196.923 22.4167 197.022 23.2614Z" fill="black"/>
<path d="M205.093 38.1611C204.87 38.0495 204.622 38.0006 204.374 38.0196C204.126 38.0386 203.888 38.1248 203.685 38.2688L62.5061 119.827C61.949 120.195 61.4865 120.69 61.1561 121.27C60.8257 121.851 60.6365 122.501 60.6041 123.168V219.961C60.5843 220.287 60.6492 220.614 60.7924 220.908C60.9357 221.202 61.1525 221.455 61.4219 221.641C61.7326 221.812 63.3937 222.776 63.8882 223.042C64.0631 223.131 64.2586 223.172 64.4547 223.161C64.6507 223.15 64.8403 223.087 65.004 222.978L206.151 141.421C206.708 141.052 207.171 140.558 207.501 139.977C207.832 139.397 208.021 138.747 208.053 138.079V40.7858C208.082 40.54 208.041 40.2911 207.936 40.0671C207.83 39.8431 207.665 39.6529 207.457 39.5178C207.14 39.3086 205.448 38.3703 205.093 38.1611Z" fill="#002F52"/>
<path d="M64.9723 121.196L206.158 39.6697C207.223 39.0357 208.06 39.5556 208.06 40.7856V138.079C208.027 138.746 207.838 139.396 207.508 139.977C207.177 140.557 206.715 141.052 206.158 141.42L64.9723 222.978C63.9072 223.612 63.0703 222.591 63.0703 221.361V124.537C63.1038 123.87 63.2933 123.22 63.6237 122.64C63.954 122.06 64.4159 121.565 64.9723 121.196Z" fill="#FAFAFA"/>
<path d="M207.02 40.0373C207.394 40.0373 207.451 40.5065 207.451 40.7854V138.079C207.417 138.638 207.253 139.181 206.972 139.665C206.692 140.149 206.302 140.561 205.834 140.869L64.668 222.426C64.5732 222.488 64.4638 222.523 64.351 222.528C63.996 222.528 63.717 221.983 63.717 221.361V124.537C63.7476 123.978 63.9065 123.434 64.1814 122.947C64.4563 122.46 64.8397 122.043 65.302 121.728L206.475 40.2148C206.638 40.1094 206.826 40.0483 207.02 40.0373ZM207.02 39.4033C206.714 39.4163 206.417 39.508 206.158 39.6696L64.9723 121.196C64.4159 121.565 63.954 122.06 63.6237 122.64C63.2933 123.22 63.1038 123.87 63.0703 124.537V221.361C63.0703 222.338 63.6156 223.162 64.3383 223.162C64.5622 223.158 64.7809 223.094 64.9723 222.978L206.151 141.42C206.709 141.052 207.171 140.557 207.501 139.977C207.832 139.396 208.021 138.746 208.053 138.079V40.7854C208.053 39.9105 207.622 39.4033 206.988 39.4033H207.02Z" fill="#E0E0E0"/>
<path d="M61.3839 221.64C61.5931 221.748 63.0957 222.604 63.755 222.984C63.5183 222.788 63.3307 222.539 63.2074 222.257C63.0841 221.975 63.0285 221.668 63.0449 221.361V130.858L60.5723 129.412V219.96C60.5519 220.286 60.6158 220.612 60.7579 220.906C60.9001 221.201 61.1156 221.453 61.3839 221.64Z" fill="#F0F0F0"/>
<path d="M208.085 40.7666C208.085 39.5494 207.217 39.0548 206.183 39.6698L64.9723 121.196C64.4159 121.565 63.954 122.06 63.6237 122.64C63.2933 123.22 63.1038 123.87 63.0703 124.537V130.877L208.085 47.1066V40.7666Z" fill="#002F52"/>
<g opacity="0.4">
<path opacity="0.4" d="M206.158 39.6698L64.9722 121.19C64.4056 121.547 63.9388 122.042 63.6154 122.629L61.1619 121.202C61.4846 120.636 61.9475 120.162 62.5059 119.826L203.685 38.2687C203.887 38.1236 204.125 38.0363 204.373 38.0162C204.621 37.9961 204.87 38.0439 205.093 38.1545C205.435 38.3701 207.039 39.2767 207.451 39.4986C207.238 39.4196 207.009 39.3938 206.783 39.4237C206.558 39.4535 206.343 39.538 206.158 39.6698Z" fill="white"/>
</g>
<path opacity="0.15" d="M60.5723 129.419V123.136C60.5983 122.451 60.8015 121.785 61.1619 121.202L63.6218 122.622C63.2665 123.195 63.0676 123.851 63.0449 124.524V130.864L60.5723 129.419Z" fill="black"/>
<path d="M178.312 113.752L93.7559 162.57C93.3447 162.837 93.0023 163.197 92.7566 163.621C92.5109 164.046 92.3689 164.522 92.342 165.011V189.255C92.3689 189.745 92.5109 190.221 92.7566 190.645C93.0023 191.069 93.3447 191.429 93.7559 191.696L96.2221 193.116C96.6604 193.338 97.1447 193.454 97.6359 193.454C98.1271 193.454 98.6115 193.338 99.0498 193.116L183.594 144.298C184.005 144.03 184.347 143.669 184.593 143.244C184.839 142.819 184.981 142.341 185.007 141.851V117.601C184.981 117.111 184.839 116.635 184.593 116.211C184.347 115.787 184.005 115.427 183.594 115.16L181.121 113.74C180.685 113.521 180.203 113.409 179.715 113.411C179.227 113.413 178.747 113.53 178.312 113.752Z" fill="#002F52"/>
<path opacity="0.5" d="M185.007 117.385C184.906 116.656 184.316 116.39 183.606 116.802L99.0498 165.62C98.6328 165.879 98.2899 166.242 98.0544 166.673L92.7605 163.617C92.9978 163.193 93.3379 162.835 93.7495 162.577L178.312 113.759C178.749 113.537 179.233 113.421 179.723 113.421C180.213 113.421 180.697 113.537 181.134 113.759L183.606 115.179C183.983 115.426 184.303 115.751 184.545 116.131C184.787 116.512 184.944 116.939 185.007 117.385Z" fill="white"/>
<path d="M98.8088 193.238C98.3948 193.401 97.9511 193.475 97.5065 193.455C97.0619 193.436 96.6265 193.323 96.2285 193.124L93.7559 191.703C93.3454 191.436 93.0035 191.075 92.7579 190.651C92.5123 190.227 92.3699 189.752 92.342 189.262V165.018C92.3611 164.523 92.505 164.041 92.7605 163.617L98.0544 166.673C97.7971 167.092 97.6529 167.57 97.6359 168.062V192.312C97.6359 193.117 98.1431 193.491 98.8088 193.238Z" fill="#263238"/>
<path d="M99.0498 165.62L183.606 116.802C184.386 116.352 185.02 116.713 185.02 117.613V141.864C184.993 142.354 184.851 142.831 184.606 143.256C184.36 143.682 184.018 144.043 183.606 144.311L99.0625 193.129C98.2827 193.579 97.6487 193.212 97.6487 192.311V168.067C97.6741 167.578 97.8142 167.102 98.0576 166.677C98.301 166.251 98.6408 165.89 99.0498 165.62Z" fill="#EB9B00"/>
<path d="M155.894 126.699L93.7622 162.577C93.3506 162.835 93.0105 163.193 92.7732 163.617L98.0671 166.673C98.3026 166.242 98.6455 165.88 99.0625 165.62L161.194 129.749L155.894 126.699Z" fill="#455A64"/>
<path d="M161.182 129.748L99.0498 165.62C98.6385 165.888 98.2961 166.249 98.0505 166.674C97.8049 167.1 97.6629 167.577 97.636 168.067V192.305C97.636 193.205 98.27 193.573 99.0498 193.123L161.182 157.251V129.748Z" fill="#37474F"/>
<path d="M113.378 162.666L145.44 144.159C146.765 143.392 147.842 143.937 147.842 145.376C147.783 146.185 147.534 146.968 147.116 147.662C146.697 148.356 146.121 148.941 145.433 149.371L113.378 167.883C112.053 168.65 110.969 168.105 110.969 166.666C111.029 165.857 111.278 165.073 111.697 164.379C112.115 163.684 112.691 163.097 113.378 162.666Z" fill="#EB9B00"/>
<path d="M119.946 168.797C119.952 168.79 119.96 168.785 119.968 168.781C119.976 168.777 119.985 168.775 119.994 168.775C120.003 168.775 120.012 168.777 120.02 168.781C120.028 168.785 120.036 168.79 120.042 168.797C120.07 168.84 120.083 168.891 120.08 168.943V172.55C120.08 172.899 120.05 173.247 119.991 173.59C119.938 173.904 119.849 174.21 119.725 174.503C119.611 174.771 119.462 175.023 119.281 175.251C119.102 175.463 118.888 175.641 118.647 175.777C118.458 175.9 118.238 175.966 118.013 175.967C117.927 175.961 117.843 175.936 117.767 175.896C117.69 175.856 117.623 175.8 117.569 175.733C117.43 175.546 117.338 175.329 117.303 175.099C117.242 174.792 117.214 174.48 117.22 174.167V170.553C117.22 170.49 117.233 170.427 117.258 170.369C117.274 170.317 117.308 170.272 117.353 170.242L117.753 170.008C117.766 169.996 117.783 169.989 117.8 169.989C117.818 169.989 117.835 169.996 117.848 170.008C117.877 170.05 117.891 170.102 117.886 170.154V173.717C117.881 173.913 117.9 174.109 117.943 174.3C117.961 174.422 118.013 174.537 118.095 174.63C118.124 174.664 118.16 174.691 118.2 174.708C118.241 174.726 118.285 174.734 118.33 174.731C118.438 174.724 118.543 174.689 118.634 174.63C118.747 174.562 118.849 174.479 118.938 174.382C119.037 174.268 119.119 174.14 119.179 174.002C119.251 173.839 119.304 173.669 119.338 173.495C119.375 173.286 119.392 173.073 119.389 172.861V169.291C119.391 169.228 119.406 169.165 119.433 169.108C119.448 169.055 119.482 169.01 119.528 168.981L119.946 168.797Z" fill="#FAFAFA"/>
<path d="M122.432 172.207C122.435 172.161 122.424 172.114 122.4 172.074C122.385 172.058 122.366 172.045 122.345 172.037C122.324 172.03 122.302 172.027 122.28 172.03C122.202 172.019 122.123 172.019 122.045 172.03L121.677 172.1C121.559 172.129 121.435 172.129 121.316 172.1C121.223 172.07 121.143 172.009 121.088 171.928C121.026 171.826 120.985 171.711 120.967 171.592C120.905 171.253 120.905 170.905 120.967 170.565C121.015 170.371 121.083 170.182 121.17 170.001C121.257 169.821 121.363 169.651 121.487 169.494C121.607 169.344 121.753 169.218 121.918 169.12C122.052 169.039 122.201 168.987 122.356 168.968C122.468 168.956 122.581 168.98 122.679 169.037C122.772 169.094 122.845 169.178 122.888 169.278C122.939 169.397 122.967 169.524 122.971 169.652C122.977 169.716 122.964 169.78 122.933 169.836C122.917 169.889 122.883 169.934 122.838 169.963L122.457 170.185C122.44 170.195 122.42 170.2 122.4 170.2C122.38 170.2 122.36 170.195 122.343 170.185L122.261 170.122C122.228 170.096 122.188 170.08 122.147 170.077C122.065 170.086 121.987 170.115 121.918 170.16C121.819 170.22 121.731 170.297 121.658 170.388C121.582 170.488 121.541 170.611 121.544 170.737C121.535 170.785 121.535 170.834 121.544 170.882C121.556 170.9 121.572 170.915 121.591 170.926C121.61 170.937 121.63 170.944 121.652 170.946C121.721 170.957 121.792 170.957 121.861 170.946L122.216 170.882C122.514 170.825 122.717 170.882 122.85 171.047C122.99 171.282 123.054 171.554 123.034 171.827C123.032 172.015 123.007 172.203 122.958 172.385C122.908 172.583 122.836 172.774 122.742 172.956C122.649 173.143 122.532 173.318 122.394 173.475C122.262 173.63 122.106 173.76 121.931 173.862C121.792 173.951 121.633 174.006 121.468 174.021C121.349 174.025 121.231 173.992 121.132 173.926C121.034 173.859 120.959 173.764 120.917 173.653C120.865 173.533 120.839 173.403 120.84 173.273C120.835 173.207 120.848 173.141 120.879 173.082C120.894 173.03 120.928 172.985 120.974 172.956L121.354 172.734C121.405 172.734 121.443 172.702 121.468 172.734L121.551 172.822C121.567 172.841 121.588 172.857 121.611 172.868C121.634 172.878 121.658 172.885 121.684 172.886C121.773 172.886 121.86 172.857 121.931 172.803C122.045 172.738 122.148 172.655 122.235 172.556C122.278 172.504 122.315 172.446 122.343 172.385C122.388 172.335 122.418 172.273 122.432 172.207Z" fill="#FAFAFA"/>
<path d="M123.725 170.49C123.724 170.16 123.751 169.832 123.807 169.507C123.86 169.202 123.943 168.902 124.055 168.613C124.148 168.354 124.276 168.109 124.435 167.884C124.568 167.691 124.741 167.529 124.942 167.408C125.089 167.31 125.269 167.271 125.443 167.301C125.598 167.337 125.734 167.429 125.824 167.561C125.943 167.733 126.027 167.927 126.071 168.131C126.132 168.397 126.161 168.67 126.16 168.943V169.336C126.162 169.402 126.146 169.468 126.115 169.526C126.1 169.578 126.066 169.623 126.02 169.653L124.372 170.61C124.368 170.722 124.383 170.833 124.416 170.94C124.441 171.012 124.485 171.075 124.543 171.124C124.595 171.165 124.661 171.185 124.727 171.181C124.803 171.172 124.877 171.146 124.942 171.105C125.038 171.053 125.124 170.984 125.196 170.902C125.261 170.829 125.316 170.748 125.361 170.661C125.388 170.611 125.417 170.562 125.45 170.515C125.477 170.483 125.509 170.455 125.545 170.433L125.938 170.204C125.951 170.194 125.968 170.188 125.985 170.188C126.003 170.188 126.019 170.194 126.033 170.204C126.049 170.224 126.062 170.248 126.068 170.273C126.075 170.298 126.076 170.325 126.071 170.35C126.064 170.474 126.038 170.596 125.995 170.712C125.94 170.887 125.868 171.057 125.779 171.219C125.68 171.404 125.561 171.579 125.424 171.739C125.288 171.902 125.125 172.041 124.942 172.151C124.793 172.249 124.613 172.292 124.435 172.271C124.279 172.234 124.143 172.139 124.055 172.005C123.93 171.813 123.846 171.597 123.807 171.371C123.75 171.081 123.722 170.786 123.725 170.49ZM124.942 168.467C124.845 168.52 124.76 168.593 124.695 168.683C124.625 168.772 124.567 168.87 124.524 168.974C124.479 169.079 124.443 169.187 124.416 169.298C124.394 169.398 124.379 169.5 124.372 169.602L125.488 168.968C125.481 168.881 125.468 168.794 125.45 168.708C125.44 168.632 125.409 168.559 125.361 168.499C125.342 168.472 125.317 168.448 125.289 168.431C125.261 168.414 125.229 168.402 125.196 168.398C125.106 168.39 125.016 168.415 124.942 168.467Z" fill="#FAFAFA"/>
<path d="M128.15 166.698C127.958 166.807 127.807 166.977 127.719 167.18C127.62 167.447 127.575 167.732 127.586 168.016V170.305C127.587 170.371 127.574 170.435 127.548 170.495C127.532 170.548 127.499 170.593 127.453 170.622L127.079 170.838C127.073 170.845 127.066 170.85 127.057 170.854C127.049 170.857 127.04 170.859 127.031 170.859C127.022 170.859 127.013 170.857 127.005 170.854C126.997 170.85 126.99 170.845 126.984 170.838C126.955 170.795 126.942 170.743 126.946 170.692V166.59C126.946 166.525 126.959 166.46 126.984 166.4C127.001 166.349 127.035 166.304 127.079 166.273L127.453 166.057C127.466 166.045 127.483 166.039 127.5 166.039C127.518 166.039 127.535 166.045 127.548 166.057C127.577 166.098 127.591 166.147 127.586 166.197V166.4C127.662 166.23 127.755 166.068 127.865 165.918C127.965 165.779 128.095 165.664 128.245 165.582L128.474 165.449C128.485 165.437 128.501 165.431 128.518 165.431C128.535 165.431 128.551 165.437 128.562 165.449C128.593 165.491 128.609 165.542 128.607 165.595V166.172C128.606 166.237 128.591 166.302 128.562 166.362C128.546 166.412 128.515 166.456 128.474 166.489L128.15 166.698Z" fill="#FAFAFA"/>
<path d="M132.88 166.394C132.886 166.387 132.893 166.382 132.902 166.378C132.91 166.374 132.919 166.372 132.928 166.372C132.937 166.372 132.946 166.374 132.954 166.378C132.962 166.382 132.969 166.387 132.975 166.394C133.004 166.437 133.017 166.488 133.013 166.54V167.174C133.013 167.239 133 167.303 132.975 167.364C132.953 167.411 132.921 167.452 132.88 167.484L130.712 168.752C130.699 168.764 130.682 168.771 130.664 168.771C130.647 168.771 130.63 168.764 130.617 168.752C130.588 168.712 130.575 168.662 130.579 168.613V162.907C130.579 162.841 130.592 162.777 130.617 162.717C130.635 162.667 130.668 162.625 130.712 162.596L131.111 162.362C131.124 162.349 131.141 162.343 131.159 162.343C131.176 162.343 131.193 162.349 131.206 162.362C131.235 162.402 131.248 162.451 131.244 162.501V167.326L132.88 166.394Z" fill="#FAFAFA"/>
<path d="M134.826 161.703C134.969 161.604 135.141 161.557 135.315 161.569C135.463 161.581 135.601 161.649 135.701 161.76C135.819 161.895 135.906 162.056 135.955 162.229C136.023 162.453 136.061 162.686 136.069 162.92C136.069 162.971 136.069 163.04 136.069 163.123V163.611C136.069 163.687 136.069 163.757 136.069 163.814C136.056 164.089 136.018 164.363 135.955 164.632C135.896 164.893 135.811 165.148 135.701 165.392C135.601 165.62 135.471 165.833 135.315 166.026C135.181 166.202 135.015 166.35 134.826 166.464C134.68 166.559 134.507 166.606 134.332 166.597C134.185 166.584 134.049 166.516 133.951 166.407C133.83 166.276 133.743 166.117 133.698 165.944C133.63 165.72 133.592 165.487 133.584 165.253C133.584 165.202 133.584 165.139 133.584 165.056V164.568C133.584 164.486 133.584 164.416 133.584 164.365C133.591 164.088 133.627 163.811 133.692 163.541C133.753 163.278 133.84 163.021 133.951 162.774C134.052 162.548 134.18 162.335 134.332 162.14C134.466 161.963 134.634 161.814 134.826 161.703ZM135.422 163.338C135.422 163.198 135.398 163.059 135.353 162.926C135.329 162.845 135.28 162.774 135.213 162.723C135.159 162.687 135.094 162.671 135.029 162.679C134.957 162.693 134.888 162.721 134.826 162.761C134.752 162.802 134.684 162.853 134.623 162.913C134.551 162.989 134.489 163.074 134.44 163.167C134.376 163.282 134.329 163.406 134.3 163.535C134.259 163.697 134.233 163.862 134.224 164.029C134.224 164.08 134.224 164.137 134.224 164.207V164.657C134.224 164.727 134.224 164.784 134.224 164.822C134.23 164.962 134.256 165.101 134.3 165.234C134.323 165.315 134.372 165.386 134.44 165.437C134.466 165.455 134.496 165.468 134.528 165.475C134.559 165.482 134.592 165.482 134.623 165.475C134.695 165.463 134.764 165.437 134.826 165.399C134.9 165.356 134.968 165.305 135.029 165.247C135.1 165.169 135.162 165.084 135.213 164.993C135.274 164.876 135.321 164.753 135.353 164.625C135.394 164.464 135.417 164.298 135.422 164.131C135.426 164.072 135.426 164.012 135.422 163.953V163.509C135.426 163.452 135.426 163.395 135.422 163.338Z" fill="#FAFAFA"/>
<path d="M138.009 165.411C138.09 165.362 138.163 165.3 138.225 165.227C138.301 165.138 138.367 165.04 138.421 164.936C138.484 164.808 138.533 164.674 138.567 164.536C138.606 164.381 138.625 164.221 138.624 164.061V163.737C138.624 163.801 138.561 163.877 138.516 163.966C138.473 164.058 138.422 164.147 138.364 164.232C138.298 164.321 138.226 164.406 138.148 164.486C138.069 164.569 137.977 164.64 137.876 164.695C137.811 164.739 137.737 164.77 137.66 164.785C137.583 164.801 137.503 164.8 137.426 164.784C137.285 164.739 137.164 164.648 137.083 164.524C136.98 164.36 136.905 164.18 136.861 163.991C136.807 163.752 136.778 163.507 136.773 163.262C136.773 163.18 136.773 163.078 136.773 162.958C136.773 162.837 136.773 162.736 136.773 162.647C136.781 162.368 136.81 162.091 136.861 161.816C136.914 161.547 136.988 161.282 137.083 161.024C137.173 160.8 137.288 160.588 137.426 160.39C137.543 160.215 137.696 160.068 137.876 159.959C137.96 159.908 138.052 159.872 138.148 159.851C138.22 159.838 138.293 159.838 138.364 159.851C138.42 159.867 138.472 159.895 138.516 159.933C138.557 159.964 138.593 160.001 138.624 160.041V159.838C138.624 159.773 138.637 159.709 138.662 159.648C138.68 159.599 138.713 159.556 138.757 159.528L139.131 159.306C139.144 159.294 139.161 159.287 139.179 159.287C139.196 159.287 139.213 159.294 139.226 159.306C139.257 159.348 139.273 159.399 139.271 159.452V163.573C139.288 164.19 139.173 164.804 138.935 165.373C138.747 165.821 138.424 166.198 138.009 166.451C137.868 166.539 137.706 166.589 137.54 166.597C137.408 166.605 137.278 166.572 137.166 166.502C137.059 166.422 136.972 166.317 136.912 166.197C136.85 166.053 136.816 165.898 136.811 165.741C136.805 165.675 136.818 165.609 136.849 165.551C136.864 165.498 136.898 165.453 136.944 165.424L137.28 165.234C137.288 165.225 137.297 165.219 137.307 165.214C137.318 165.21 137.329 165.208 137.34 165.208C137.351 165.208 137.363 165.21 137.373 165.214C137.383 165.219 137.393 165.225 137.4 165.234C137.432 165.267 137.459 165.303 137.483 165.342C137.521 165.409 137.585 165.46 137.66 165.481C137.736 165.538 137.851 165.475 138.009 165.411ZM137.413 162.336C137.413 162.505 137.413 162.67 137.413 162.831C137.395 163.084 137.467 163.336 137.616 163.541C137.672 163.59 137.744 163.616 137.819 163.616C137.893 163.616 137.965 163.59 138.022 163.541C138.206 163.421 138.349 163.249 138.434 163.046C138.549 162.782 138.614 162.498 138.624 162.21C138.624 162.114 138.624 162 138.624 161.867C138.624 161.734 138.624 161.62 138.624 161.538C138.637 161.31 138.57 161.086 138.434 160.904C138.378 160.852 138.304 160.823 138.228 160.823C138.151 160.823 138.078 160.852 138.022 160.904C137.841 161.023 137.7 161.193 137.616 161.392C137.486 161.69 137.417 162.011 137.413 162.336Z" fill="#FAFAFA"/>
<path d="M140.748 156.706C140.761 156.696 140.776 156.69 140.792 156.69C140.809 156.69 140.824 156.696 140.837 156.706C140.87 156.747 140.886 156.8 140.881 156.852V157.543C140.882 157.609 140.866 157.674 140.837 157.733C140.819 157.781 140.788 157.823 140.748 157.854L140.323 158.101C140.317 158.108 140.31 158.113 140.302 158.117C140.294 158.121 140.285 158.123 140.276 158.123C140.267 158.123 140.258 158.121 140.25 158.117C140.241 158.113 140.234 158.108 140.228 158.101C140.212 158.082 140.199 158.06 140.192 158.036C140.184 158.012 140.181 157.987 140.184 157.962V157.271C140.183 157.205 140.199 157.139 140.228 157.08C140.246 157.031 140.279 156.989 140.323 156.96L140.748 156.706ZM140.856 162.66C140.856 162.723 140.843 162.786 140.818 162.843C140.798 162.893 140.765 162.937 140.723 162.97L140.342 163.186C140.337 163.192 140.33 163.198 140.323 163.201C140.315 163.205 140.306 163.207 140.298 163.207C140.289 163.207 140.281 163.205 140.273 163.201C140.266 163.198 140.259 163.192 140.254 163.186C140.22 163.145 140.204 163.093 140.209 163.04V158.938C140.209 158.872 140.224 158.807 140.254 158.748C140.271 158.699 140.302 158.655 140.342 158.621L140.723 158.405C140.736 158.393 140.753 158.387 140.77 158.387C140.788 158.387 140.805 158.393 140.818 158.405C140.846 158.446 140.86 158.495 140.856 158.545V162.66Z" fill="#FAFAFA"/>
<path d="M144.191 160.726C144.19 160.791 144.177 160.856 144.153 160.916C144.135 160.965 144.102 161.008 144.058 161.036L143.677 161.258C143.665 161.27 143.649 161.276 143.633 161.276C143.616 161.276 143.6 161.27 143.588 161.258C143.555 161.217 143.539 161.165 143.544 161.112V158.881C143.563 158.617 143.515 158.353 143.405 158.114C143.316 157.955 143.176 157.93 142.98 158.044C142.784 158.176 142.638 158.37 142.568 158.595C142.462 158.895 142.41 159.21 142.415 159.527V161.765C142.415 161.831 142.402 161.895 142.377 161.956C142.362 162.008 142.328 162.053 142.282 162.082L141.908 162.298C141.902 162.305 141.895 162.31 141.887 162.314C141.879 162.318 141.87 162.319 141.861 162.319C141.852 162.319 141.843 162.318 141.835 162.314C141.826 162.31 141.819 162.305 141.813 162.298C141.784 162.258 141.77 162.208 141.775 162.159V158.057C141.774 157.991 141.787 157.926 141.813 157.866C141.829 157.814 141.862 157.769 141.908 157.74L142.282 157.524C142.288 157.517 142.296 157.512 142.304 157.508C142.312 157.504 142.321 157.503 142.33 157.503C142.339 157.503 142.348 157.504 142.356 157.508C142.364 157.512 142.372 157.517 142.377 157.524C142.406 157.567 142.419 157.618 142.415 157.67V157.866C142.499 157.673 142.601 157.488 142.72 157.315C142.824 157.155 142.966 157.022 143.132 156.928C143.276 156.823 143.456 156.777 143.633 156.801C143.703 156.819 143.769 156.851 143.825 156.896C143.882 156.941 143.929 156.997 143.962 157.061C144.054 157.233 144.115 157.42 144.14 157.613C144.174 157.865 144.191 158.119 144.191 158.374V160.726Z" fill="#FAFAFA"/>
<path d="M176.169 142.27L170.013 145.82L170.971 137.185C170.229 136.792 169.76 135.835 169.76 134.459C169.76 132.005 171.256 129.158 173.095 128.119C174.933 127.079 176.423 128.182 176.423 130.655C176.385 132.11 175.97 133.529 175.218 134.776L176.169 142.27Z" fill="#455A64"/>
<path d="M176.176 142.27L170.755 139.145L170.013 145.827L176.176 142.27Z" fill="#37474F"/>
<path d="M173.082 128.1C171.741 129.006 170.742 130.333 170.242 131.872L175.206 134.738C175.957 133.492 176.372 132.072 176.411 130.617C176.423 128.163 174.933 127.041 173.082 128.1Z" fill="#37474F"/>
<path d="M143.157 99.3482C141.046 98.1309 138.136 98.3021 134.915 100.16C128.486 103.875 123.275 112.897 123.275 120.321C123.275 124.049 124.594 126.661 126.711 127.866L130.813 130.249C132.918 131.467 135.828 131.289 139.055 129.432C145.484 125.723 150.695 116.694 150.695 109.27C150.695 105.561 149.389 102.93 147.284 101.745" fill="#002F52"/>
<path d="M139.049 102.55C132.62 106.265 127.409 115.293 127.409 122.711C127.409 130.129 132.62 133.147 139.049 129.431C145.478 125.716 150.695 116.694 150.689 109.27C150.683 101.846 145.471 98.8408 139.049 102.55Z" fill="#002F52"/>
<path d="M145.471 119.021V119.871C143.931 122.62 141.722 124.936 139.049 126.604C136.545 128.043 134.281 128.202 132.62 127.282V125.532C132.705 123.712 133.225 121.938 134.136 120.36C135.047 118.781 136.323 117.444 137.857 116.46L139.55 115.484C141.046 114.621 142.504 114.507 143.645 115.173C144.787 115.839 145.471 117.24 145.471 119.021Z" fill="#002F52"/>
<path opacity="0.4" d="M143.157 99.3482L147.278 101.745C145.173 100.521 142.263 100.692 139.036 102.55C134.826 104.984 131.137 109.695 129.095 114.742L124.968 112.352C127.016 107.28 130.674 102.594 134.909 100.16C138.142 98.3085 141.052 98.1309 143.157 99.3482Z" fill="white"/>
<path opacity="0.2" d="M130.667 130.155L126.718 127.866C124.6 126.661 123.281 124.062 123.281 120.321L127.409 122.718C127.434 126.332 128.651 128.906 130.667 130.155Z" fill="black"/>
<path opacity="0.1" d="M124.98 112.352L129.108 114.742C128.05 117.268 127.482 119.973 127.434 122.711L123.307 120.315C123.357 117.578 123.925 114.877 124.98 112.352Z" fill="black"/>
<path d="M137.578 115.084C137.185 115.089 136.797 114.988 136.456 114.793C136.044 114.518 135.714 114.138 135.501 113.691C135.288 113.245 135.2 112.749 135.245 112.257C135.299 111.102 135.628 109.976 136.206 108.975C136.784 107.973 137.594 107.125 138.567 106.5C138.958 106.188 139.434 106.001 139.933 105.964C140.432 105.927 140.93 106.041 141.363 106.292C141.796 106.542 142.143 106.918 142.359 107.369C142.575 107.82 142.65 108.326 142.574 108.82C142.519 109.975 142.189 111.1 141.611 112.102C141.033 113.103 140.224 113.952 139.252 114.577C138.749 114.891 138.171 115.066 137.578 115.084Z" fill="white"/>
<path d="M143.645 115.167C142.504 114.501 141.046 114.615 139.55 115.478L137.857 116.454C136.322 117.439 135.046 118.777 134.135 120.357C133.223 121.936 132.704 123.711 132.62 125.533V127.289C134.281 128.208 136.545 128.05 139.049 126.611C141.722 124.943 143.931 122.627 145.471 119.878V119.028C145.471 117.24 144.812 115.839 143.645 115.167Z" fill="white"/>
<path d="M239.094 50.7201L241.11 51.4935V47.0555C241.11 43.5305 243.919 42.6873 246.968 44.4498C250.024 46.2123 252.497 50.4918 252.497 54.0169V54.6509C252.922 54.521 253.371 54.4889 253.81 54.557C254.249 54.625 254.667 54.7915 255.033 55.0439C256.191 55.799 257.154 56.8166 257.845 58.0141C258.536 59.2115 258.934 60.5551 259.008 61.9355V62.2272L261.823 63.8502C262.584 64.3473 263.218 65.0167 263.673 65.8042C264.128 66.5917 264.391 67.4752 264.441 68.3833C264.441 70.0571 263.268 70.7354 261.823 69.8986L239.094 56.7684C238.332 56.2725 237.698 55.6032 237.244 54.8154C236.79 54.0275 236.529 53.1434 236.482 52.2353C236.482 50.5679 237.642 49.8895 239.094 50.7201Z" fill="#E6E6E6"/>
<path d="M266.096 47.2073L269.754 49.3185C269.734 49.1587 269.724 48.9978 269.723 48.8367V47.7779C269.723 45.8759 271.041 45.1278 272.677 46.0725C273.38 46.5028 273.981 47.0803 274.44 47.7652C274.706 45.3941 276.57 44.5128 278.827 45.8125C280.117 46.6518 281.191 47.7831 281.962 49.1148C282.733 50.4465 283.179 51.9411 283.265 53.4776V55.0626C283.281 55.6959 283.153 56.3246 282.891 56.9012L285.934 58.651C286.408 58.9656 286.802 59.387 287.084 59.8813C287.366 60.3757 287.528 60.9293 287.557 61.4977C287.557 62.5438 286.822 62.9686 285.915 62.4487L266.096 51.0367C265.617 50.7244 265.218 50.3031 264.933 49.8072C264.647 49.3114 264.483 48.755 264.454 48.1837C264.454 47.1122 265.19 46.6874 266.096 47.2073Z" fill="#E6E6E6"/>
<path d="M251.932 143.429C249.27 147.931 246.708 151.843 244.908 153.719C241.49 155.304 233.464 157.752 230.326 158.157C229.774 158.227 229.216 158.097 228.753 157.79C227.517 156.978 226.56 156.845 225.26 156.395C224.239 156.046 223.808 155.558 223.618 155.761C223.421 155.991 223.323 156.289 223.343 156.591C223.363 156.893 223.5 157.175 223.726 157.377C224.213 157.841 224.754 158.245 225.336 158.582C223.944 158.927 222.492 158.953 221.088 158.658C218.368 157.942 217.088 159.248 218.926 162.202C219.56 163.255 222.172 164.947 227.422 164.491C229.295 164.39 231.16 164.178 233.008 163.857C238.041 162.779 243.64 161.739 247.082 160.687C248.363 160.183 249.509 159.389 250.43 158.366C256.218 151.767 258.139 147.062 260.675 142.789L260.46 135.815C256.351 135.676 254.158 139.663 251.932 143.429Z" fill="#FFA8A7"/>
<path d="M261.164 135.676C259.972 135.508 258.758 135.669 257.652 136.142C256.546 136.615 255.59 137.381 254.887 138.357C252.072 141.965 247.089 150.625 247.089 150.625C247.089 150.625 248.718 154.968 253.118 155.697L260.187 146.149C260.187 146.149 263.535 139.518 261.164 135.676Z" fill="#455A64"/>
<path d="M276.449 233.02H271.84V241.237H276.449V233.02Z" fill="#FFA8A7"/>
<path d="M260.472 232.582L255.87 232.747L255.635 224.049L260.472 223.884V232.582Z" fill="#FFA8A7"/>
<path d="M277.096 161.892C277.096 166.469 276.424 203.349 276.424 203.349C276.525 204.668 277.692 207.102 277.457 212.168C277.109 219.047 276.646 237.128 276.646 237.128C275.855 237.533 274.982 237.753 274.093 237.77C273.204 237.788 272.323 237.603 271.517 237.23C271.517 237.23 267.776 211.87 266.952 205.08C266.229 199.126 264.378 179.422 264.378 179.422L261.886 202.715C262.415 205.214 262.606 207.773 262.457 210.323C262.241 213.493 260.758 229.901 260.758 229.901C259.962 230.37 259.069 230.653 258.147 230.726C257.226 230.8 256.299 230.663 255.439 230.326C255.439 230.326 252.814 205.6 252.763 202.696C252.7 199.399 254.297 161.854 254.297 161.854L277.096 161.892Z" fill="#37474F"/>
<path d="M271.84 238.866V238.181C271.396 238.377 270.376 242.448 268.543 244.185C267.092 245.567 265.113 247.158 264.606 248.699C264.099 250.239 267.364 251.184 268.727 250.937C270.3 250.645 273.038 249.485 273.723 248.401C274.408 247.317 274.731 245.744 275.289 244.958C275.847 244.172 277.134 243.297 277.432 242.384C277.525 241.53 277.436 240.666 277.172 239.848C276.957 238.999 276.728 238.067 276.449 238.149V238.669C275.799 239.202 274.982 239.49 274.142 239.481C273.47 239.538 271.834 239.398 271.84 238.866Z" fill="#263238"/>
<path d="M255.819 231.264C255.578 231.264 255.382 231.625 254.855 232.221C254.073 233.044 253.158 233.73 252.148 234.25C250.424 235.15 247.076 236.532 245.548 237.249C244.597 237.693 244.642 238.885 245.624 239.563C246.607 240.241 248.972 240.73 251.812 240.07C253.359 239.709 255.375 238.219 256.656 238.301C257.937 238.384 260.314 238.358 261.259 237.667C262.203 236.976 261.823 235.543 261.557 234.307C261.265 232.95 260.923 230.839 260.473 230.934V231.41C259.921 232.285 257.062 232.64 255.844 231.999L255.819 231.264Z" fill="#263238"/>
<path d="M264.378 179.422C261.98 178.637 259.788 177.326 257.962 175.586C257.962 175.586 259.23 178.001 262.882 180.252L262.096 201.054L264.378 179.422Z" fill="#263238"/>
<path d="M274.522 136.348C274.522 136.348 278.326 137.223 278.053 144.095L277.261 155.032V171.452C273.875 175.294 258.875 175.015 253.708 171.148C253.708 171.148 254.291 151.716 254.64 144.235C254.887 138.922 256.111 136.246 261.335 135.663L267.757 135.942L274.522 136.348Z" fill="#002F52"/>
<path d="M269.678 122.07C269.7 122.99 269.54 123.905 269.206 124.763C268.873 125.621 268.373 126.404 267.735 127.068C267.097 127.731 266.334 128.262 265.491 128.63C264.647 128.997 263.739 129.194 262.818 129.209C259.014 129.209 256.783 125.925 255.959 122.07C254.437 115.014 259.027 114.925 262.818 114.925C264.675 114.963 266.441 115.737 267.728 117.077C269.014 118.417 269.716 120.213 269.678 122.07Z" fill="#263238"/>
<path d="M273.178 124.955C273.178 124.955 272.125 130.103 271.701 130.953C271.433 131.464 270.979 131.852 270.433 132.037L270.509 128.417L273.178 124.955Z" fill="#263238"/>
<path d="M271.853 117.582C271.853 117.582 272.607 117.391 273.412 118.647C274.097 119.718 274.256 122.127 273.178 124.987L271.193 125.228L271.853 117.582Z" fill="#263238"/>
<path d="M272.582 118.627L275.017 118.671C275.033 118.514 275.017 118.355 274.969 118.204C274.922 118.053 274.843 117.914 274.739 117.795C274.635 117.676 274.507 117.579 274.364 117.512C274.221 117.445 274.065 117.408 273.907 117.403C273.574 117.408 273.255 117.536 273.01 117.761C272.766 117.987 272.613 118.296 272.582 118.627Z" fill="#263238"/>
<path d="M272.88 118.051L274.681 116.32C274.577 116.198 274.449 116.098 274.305 116.028C274.16 115.957 274.003 115.918 273.843 115.911C273.683 115.905 273.523 115.931 273.374 115.99C273.224 116.048 273.088 116.137 272.975 116.25C272.736 116.484 272.594 116.798 272.576 117.132C272.559 117.465 272.667 117.793 272.88 118.051Z" fill="#263238"/>
<path d="M270.597 125.196C270.997 125.443 271.561 124.651 272.056 124.112C272.55 123.573 274.084 123.078 274.883 124.828C275.682 126.578 274.319 128.309 273.178 128.879C271.13 129.894 270.483 128.417 270.483 128.417L270.312 136.57C267.434 141.008 260.904 140.868 263.256 136.354V133.875C262.288 134.036 261.306 134.087 260.327 134.028C258.729 133.774 257.727 132.462 257.239 130.661C256.466 127.77 256.168 125.437 256.827 119.75C257.55 113.524 264.511 113.454 268.239 115.946C271.967 118.437 270.597 125.196 270.597 125.196Z" fill="#FFA8A7"/>
<path d="M261.924 118.779C263.585 118.615 265.227 118.272 266.895 118.145C267.254 118.102 267.619 118.119 267.973 118.196C269.241 118.545 269.088 120.028 269.291 121.062C269.64 122.85 269.925 125.874 270.597 125.887C270.8 125.887 271.561 124.574 272.056 124.105C272.327 123.701 272.481 123.229 272.499 122.742C272.626 122.006 272.69 121.252 272.747 120.504C272.797 119.87 272.861 119.236 272.861 118.602C272.89 117.885 272.832 117.168 272.69 116.465C272.531 115.867 272.226 115.318 271.802 114.868L271.675 114.728C270.839 113.854 269.825 113.171 268.702 112.725C267.085 112.119 265.39 111.75 263.668 111.628C261.948 111.506 260.236 111.295 258.539 110.994C258.441 110.966 258.338 110.966 258.241 110.994C258.172 111.032 258.114 111.087 258.072 111.153C258.03 111.22 258.005 111.296 258 111.374C257.93 111.768 257.974 112.174 258.125 112.544C258.277 112.914 258.53 113.234 258.856 113.467C257.708 113.555 256.389 112.959 255.286 112.655C255.197 112.617 255.101 112.598 255.004 112.598C254.907 112.598 254.811 112.617 254.722 112.655C254.611 112.732 254.533 112.847 254.5 112.978C254.42 113.276 254.409 113.589 254.468 113.891C254.569 114.809 254.911 115.684 255.457 116.427C256.312 117.54 257.519 118.329 258.881 118.665C259.884 118.859 260.91 118.897 261.924 118.779Z" fill="#263238"/>
<path d="M263.262 133.875C263.262 133.875 266.825 133.126 268.068 132.435C268.808 132.03 269.409 131.412 269.792 130.66C269.605 131.415 269.271 132.126 268.81 132.752C267.903 133.97 263.262 134.857 263.262 134.857V133.875Z" fill="#F28F8F"/>
<path d="M264.118 124.264C264.111 124.459 264.182 124.65 264.315 124.793C264.448 124.937 264.632 125.022 264.828 125.031C264.983 125.043 265.139 125.009 265.274 124.932C265.41 124.855 265.519 124.738 265.587 124.598C265.655 124.458 265.679 124.301 265.657 124.147C265.634 123.992 265.565 123.849 265.459 123.734C265.353 123.62 265.215 123.54 265.063 123.506C264.911 123.471 264.752 123.483 264.607 123.54C264.463 123.598 264.338 123.697 264.251 123.826C264.163 123.955 264.117 124.108 264.118 124.264Z" fill="#263238"/>
<path d="M265.259 121.189L266.787 122.07C266.898 121.853 266.924 121.602 266.858 121.367C266.792 121.132 266.64 120.93 266.432 120.802C266.331 120.746 266.219 120.71 266.103 120.699C265.988 120.688 265.871 120.701 265.761 120.737C265.65 120.774 265.549 120.833 265.462 120.911C265.376 120.988 265.307 121.083 265.259 121.189Z" fill="#263238"/>
<path d="M263.579 129.405L261.95 130.039C261.982 130.151 262.038 130.255 262.112 130.344C262.187 130.434 262.279 130.507 262.383 130.559C262.487 130.612 262.601 130.642 262.717 130.648C262.834 130.655 262.95 130.638 263.059 130.597C263.281 130.502 263.458 130.325 263.555 130.104C263.651 129.883 263.66 129.633 263.579 129.405Z" fill="#F28F8F"/>
<path d="M257.562 121.842L258.957 120.726C258.895 120.628 258.812 120.545 258.716 120.482C258.619 120.418 258.51 120.376 258.396 120.357C258.281 120.339 258.164 120.345 258.053 120.374C257.941 120.404 257.836 120.457 257.746 120.529C257.56 120.687 257.438 120.908 257.404 121.15C257.37 121.392 257.427 121.638 257.562 121.842Z" fill="#263238"/>
<path d="M258.177 124.055C258.189 124.193 258.24 124.326 258.325 124.436C258.41 124.546 258.525 124.629 258.657 124.675C258.788 124.72 258.93 124.726 259.065 124.693C259.2 124.659 259.323 124.587 259.417 124.484C259.512 124.382 259.575 124.255 259.598 124.118C259.621 123.981 259.604 123.84 259.549 123.712C259.493 123.584 259.402 123.476 259.285 123.399C259.169 123.323 259.033 123.282 258.894 123.281C258.796 123.285 258.7 123.307 258.61 123.348C258.521 123.389 258.441 123.447 258.374 123.519C258.308 123.59 258.256 123.675 258.222 123.767C258.188 123.859 258.173 123.957 258.177 124.055Z" fill="#263238"/>
<path d="M262 123.458L261.918 127.966L259.357 127.382L262 123.458Z" fill="#F28F8F"/>
<path d="M201.175 161.213L205.15 158.918L206.722 157.01L202.753 159.305L201.175 161.213Z" fill="#002F52"/>
<path opacity="0.4" d="M201.175 161.213L205.15 158.918L206.722 157.01L202.753 159.305L201.175 161.213Z" fill="black"/>
<path d="M211.984 167.451L215.959 165.156L219.275 162.221L215.306 164.509L211.984 167.451Z" fill="#002F52"/>
<path opacity="0.4" d="M211.984 167.451L215.959 165.156L219.275 162.221L215.306 164.509L211.984 167.451Z" fill="black"/>
<path d="M245.751 175.37C246.691 176.63 247.26 178.127 247.393 179.694C246.457 178.432 245.889 176.935 245.751 175.37ZM254.988 175.49C253.651 166.392 248.763 157.396 242.942 154.029C240.146 152.413 237.56 152.356 235.487 153.567L231.746 155.722L231.537 155.849C231.37 155.941 231.209 156.042 231.055 156.153C230.748 156.365 230.459 156.602 230.193 156.863L230.066 156.984C229.952 157.098 229.831 157.231 229.724 157.358C229.616 157.485 229.451 157.681 229.324 157.852C229.055 158.207 228.811 158.58 228.595 158.968C228.481 159.165 228.373 159.374 228.272 159.602L195.602 140.747L191.633 143.036V145.572L191.969 145.762L192.286 145.946V146.453L191.652 146.827V148.298L196.451 158.442L201.194 161.187L202.772 159.285L206.957 161.79L209.359 165.904L212.01 167.432L215.325 164.49L219.396 166.843L220.765 172.491L227.606 176.448C227.944 177.885 228.367 179.302 228.874 180.689C228.918 180.829 228.975 180.974 229.032 181.133C231.302 187.092 234.91 192.196 238.98 194.548C239.468 194.838 239.979 195.086 240.508 195.29C240.788 195.401 241.073 195.497 241.364 195.575C241.617 195.643 241.871 195.7 242.125 195.747C242.925 195.893 243.746 195.893 244.546 195.747L244.876 195.664C245.034 195.632 245.189 195.588 245.339 195.531L245.694 195.392C245.82 195.346 245.941 195.289 246.055 195.22C246.173 195.17 246.287 195.113 246.398 195.049L246.563 194.948C246.592 194.938 246.62 194.923 246.645 194.903C247.552 194.383 249.783 193.09 250.392 192.748C253.41 190.998 255.362 186.573 255.362 180.315C255.357 178.7 255.232 177.087 254.988 175.49Z" fill="#002F52"/>
<path d="M244.591 183.048C243.019 182.141 241.751 179.453 241.751 177.044C241.751 174.635 243.019 173.411 244.591 174.311C246.163 175.212 247.425 177.906 247.425 180.322C247.425 182.737 246.157 183.954 244.591 183.048ZM251.013 177.779C249.682 168.688 244.794 159.685 238.967 156.325C236.266 154.765 233.768 154.651 231.74 155.722L231.53 155.849C231.364 155.941 231.203 156.043 231.049 156.154C230.741 156.365 230.453 156.603 230.186 156.864L230.06 156.984C229.945 157.098 229.825 157.231 229.717 157.358C229.609 157.485 229.445 157.682 229.318 157.853C229.049 158.207 228.805 158.58 228.589 158.969C228.475 159.165 228.367 159.374 228.265 159.603C227.674 160.828 227.248 162.126 226.997 163.464L191.626 143.036V145.572L191.962 145.762L192.279 145.946V146.453L191.645 146.827V148.298L196.445 158.442L201.187 161.188L202.766 159.286L206.95 161.79L209.353 165.905L212.003 167.432L215.319 164.491L219.389 166.843L220.759 172.492L227.606 176.448C227.944 177.886 228.367 179.302 228.874 180.689C228.918 180.829 228.975 180.975 229.032 181.133C231.302 187.093 234.91 192.196 238.98 194.549C239.468 194.838 239.979 195.086 240.508 195.29C240.788 195.402 241.073 195.497 241.364 195.576C241.617 195.643 241.871 195.7 242.125 195.747C242.925 195.893 243.746 195.893 244.546 195.747L244.876 195.664C245.034 195.633 245.189 195.588 245.339 195.531L245.694 195.392C245.82 195.347 245.941 195.289 246.055 195.221C246.173 195.17 246.287 195.113 246.398 195.049L246.563 194.948C246.592 194.938 246.62 194.923 246.645 194.904C249.536 193.078 251.394 188.716 251.394 182.61C251.383 180.993 251.256 179.378 251.013 177.779Z" fill="#002F52"/>
<path opacity="0.4" d="M247.425 180.316C247.425 182.731 246.157 183.955 244.591 183.048C243.025 182.142 241.75 179.46 241.75 177.044C241.75 174.629 243.018 173.405 244.591 174.312C245.044 174.587 245.438 174.949 245.751 175.377C245.887 176.943 246.456 178.439 247.393 179.701C247.416 179.905 247.427 180.11 247.425 180.316Z" fill="black"/>
<path opacity="0.4" d="M255.35 180.31C255.35 186.567 253.397 190.992 250.379 192.742C249.745 193.085 247.539 194.378 246.632 194.898C249.523 193.072 251.381 188.71 251.381 182.605C251.374 180.99 251.251 179.377 251.013 177.78C249.682 168.688 244.794 159.686 238.967 156.325C236.267 154.766 233.769 154.652 231.74 155.723L235.48 153.567C237.554 152.356 240.14 152.414 242.936 154.03C248.763 157.397 253.651 166.393 254.982 175.491C255.224 177.086 255.347 178.697 255.35 180.31Z" fill="white"/>
<path d="M251.381 182.591C251.381 188.697 249.523 193.058 246.632 194.884C247.539 194.365 249.771 193.071 250.379 192.729C253.397 190.979 255.35 186.554 255.35 180.296C255.35 180.068 255.35 179.833 255.35 179.599L251.381 181.894C251.375 182.141 251.381 182.369 251.381 182.591Z" fill="#002F52"/>
<path opacity="0.1" d="M251.381 182.591C251.381 188.697 249.523 193.058 246.632 194.884C247.539 194.365 249.771 193.071 250.379 192.729C253.397 190.979 255.35 186.554 255.35 180.296C255.35 180.068 255.35 179.833 255.35 179.599L251.381 181.894C251.375 182.141 251.381 182.369 251.381 182.591Z" fill="black"/>
<path opacity="0.15" d="M227.149 166.057V167.344L191.633 146.841L192.286 146.46V145.928L227.149 166.057Z" fill="black"/>
<path opacity="0.15" d="M227.149 166.589V167.343L191.633 146.84L192.286 146.459V146.453L227.149 166.589Z" fill="black"/>
<path opacity="0.15" d="M242.594 192.735C241.247 192.7 239.935 192.309 238.79 191.6C233.001 188.259 228.291 178.318 228.291 169.442C228.291 164.262 229.857 160.395 232.589 158.816C234.491 157.713 236.742 157.853 239.107 159.216C244.889 162.557 249.599 172.53 249.599 181.406C249.599 186.579 248.033 190.453 245.301 192.025C244.477 192.496 243.543 192.741 242.594 192.735ZM235.334 158.721C234.489 158.716 233.658 158.935 232.925 159.355C230.433 160.794 228.944 164.567 228.944 169.436C228.944 178.109 233.508 187.822 239.126 191.042C241.275 192.31 243.31 192.425 245.003 191.448C247.494 190.009 248.984 186.243 248.984 181.374C248.984 172.694 244.42 162.988 238.809 159.761C237.76 159.123 236.561 158.773 235.334 158.747V158.721Z" fill="black"/>
<path opacity="0.4" d="M228.24 159.59C227.649 160.815 227.222 162.113 226.972 163.451L191.601 143.023L195.57 140.734L228.24 159.59Z" fill="white"/>
<path d="M274.211 161.574C276.063 158.068 278.18 150.194 279.233 146.219C280.729 140.576 278.307 137.026 275.555 136.88C273.837 137.146 268.176 157.732 268.176 157.732C267.542 158.233 258.938 162.601 256.174 163.698C255.68 163.885 255.134 163.885 254.64 163.698C253.315 163.216 252.408 163.305 251.108 163.178C250.088 163.077 249.574 162.715 249.441 162.931C249.32 163.198 249.304 163.502 249.397 163.78C249.49 164.059 249.685 164.292 249.942 164.434C250.501 164.759 251.097 165.019 251.717 165.207C250.606 165.544 249.448 165.7 248.287 165.67C245.624 165.613 244.667 166.767 246.734 169.474C248.002 171.16 250.1 171.693 254.786 170.076C256.13 169.607 257.956 168.7 259.661 168.085C263.173 166.817 264.099 166.665 266.774 165.759C270.674 164.44 273.387 163.134 274.211 161.574Z" fill="#FFA8A7"/>
<path d="M274.522 136.348C276.139 136.57 277.692 136.931 278.649 138.25C279.607 139.568 280.374 141.42 279.435 146.46C278.717 150.005 277.755 153.496 276.557 156.908C276.557 156.908 272.791 158.519 268.791 154.436L271.542 143.797C271.542 143.797 271.986 136.88 274.522 136.348Z" fill="#455A64"/>
</svg>
